<?xml version="1.0" standalone="no"?>
<!DOCTYPE svg PUBLIC "-//W3C//DTD SVG 20010904//EN"
 "http://www.w3.org/TR/2001/REC-SVG-20010904/DTD/svg10.dtd">
<svg version="1.0" xmlns="http://www.w3.org/2000/svg"
 width="400.000000pt" height="400.000000pt" viewBox="0 0 400.000000 400.000000"
 preserveAspectRatio="xMidYMid meet">

<g transform="translate(0.000000,400.000000) scale(0.100000,-0.100000)"
fill="#000000" stroke="none">
<path d="M1960 3993 c-265 -27 -500 -92 -707 -196 -159 -81 -404 -249 -370
-255 8 -2 18 -11 20 -20 4 -15 5 -15 6 1 0 9 6 17 12 17 8 0 9 -16 4 -57 -5
-32 -9 -74 -11 -93 -1 -19 -5 -43 -9 -52 -4 -9 -4 -22 0 -28 3 -5 2 -10 -3
-10 -5 0 -14 -17 -20 -37 -11 -38 -33 -205 -34 -263 -1 -29 -2 -30 -37 -24
-48 9 -51 11 -51 39 0 27 24 39 51 25 16 -9 19 -7 19 14 0 18 -8 27 -31 35
-23 8 -30 15 -25 27 3 8 6 20 6 24 0 20 45 -9 50 -31 4 -15 12 15 24 85 9 59
16 110 14 112 -2 2 -16 -3 -31 -11 -20 -10 -27 -11 -28 -2 -2 28 4 87 15 149
11 57 11 66 0 57 -8 -6 -18 -28 -24 -48 -13 -49 -60 -381 -60 -425 0 -34 -12
-47 -24 -27 -3 5 1 62 10 127 8 66 13 133 10 149 -4 18 -3 25 3 17 5 -9 10 7
15 44 4 32 9 69 13 82 5 22 4 23 -15 13 -11 -6 -55 -52 -98 -103 -228 -272
-374 -591 -428 -938 -15 -94 -33 -330 -25 -330 2 0 83 -16 178 -35 96 -19 177
-31 180 -26 38 59 106 146 147 188 28 29 56 64 62 78 6 14 16 25 21 25 6 0 36
16 69 35 32 19 92 45 133 59 78 26 300 67 353 65 17 -1 -4 -6 -46 -13 -78 -12
-93 -18 -93 -39 0 -7 -21 -23 -48 -37 l-47 -25 -23 29 c-18 23 -28 27 -43 21
-17 -7 -18 -8 -1 -12 9 -3 17 -10 17 -18 0 -9 -15 -12 -55 -10 -59 3 -83 -9
-36 -18 19 -4 41 -23 67 -59 48 -67 77 -142 98 -263 3 -16 10 -44 15 -62 5
-17 7 -34 4 -37 -3 -3 -1 -11 5 -18 5 -7 11 -24 11 -38 0 -14 3 -46 6 -72 2
-27 3 -48 0 -48 -2 0 -11 35 -20 78 -36 171 -68 289 -91 333 -12 25 -50 69
-83 98 -66 57 -92 56 -32 -2 20 -20 46 -53 57 -74 10 -21 22 -40 25 -43 4 -3
10 -20 14 -37 3 -18 10 -33 14 -33 7 0 31 -59 31 -76 -1 -5 -7 5 -15 21 -10
19 -13 22 -9 8 11 -45 -12 -21 -43 45 -26 53 -44 75 -85 104 -60 44 -75 42
-30 -5 53 -55 88 -156 63 -183 -5 -5 -11 -18 -14 -29 -5 -16 -5 -14 -4 5 2 41
-14 72 -52 107 -48 43 -72 44 -37 1 14 -18 33 -45 41 -60 14 -26 14 -28 -2
-28 -9 0 -27 10 -40 22 -52 49 -32 -26 23 -85 28 -30 30 -37 10 -37 -8 0 -16
-6 -19 -12 -2 -8 -32 16 -71 57 -74 76 -79 66 -21 -34 18 -31 38 -73 44 -93 7
-21 17 -40 22 -43 5 -4 9 -13 9 -22 0 -14 -21 6 -138 137 -26 29 -31 32 -31
15 0 -26 56 -115 107 -169 43 -46 67 -85 57 -94 -3 -3 -22 12 -43 34 -20 23
-55 50 -78 62 -22 11 -52 34 -65 51 -13 17 -30 31 -36 31 -17 0 -16 -4 7 -42
11 -18 20 -42 20 -53 0 -11 13 -33 28 -50 15 -16 41 -48 57 -70 16 -22 36 -46
44 -52 8 -7 12 -16 8 -19 -4 -4 -24 12 -44 34 -33 35 -113 83 -113 67 0 -5 8
-22 29 -62 10 -20 9 -23 -9 -23 -12 0 -20 -7 -20 -16 0 -9 -9 -18 -21 -21 -14
-4 -19 -12 -16 -24 3 -12 -15 -3 -61 30 -48 34 -73 60 -91 96 -21 40 -26 46
-29 28 -5 -35 21 -74 102 -153 41 -40 73 -77 70 -81 -3 -5 0 -9 7 -9 13 0 214
-96 236 -113 10 -7 9 -16 -3 -39 -9 -16 -13 -32 -11 -35 18 -17 349 172 472
270 57 45 281 192 309 203 13 5 16 14 12 33 -3 14 -3 20 0 14 7 -17 42 -16 59
0 11 12 7 20 -26 52 -37 36 -48 55 -31 55 4 0 13 -5 20 -12 9 -9 12 -3 12 30
0 23 4 42 9 42 5 0 27 -22 48 -49 46 -60 56 -65 93 -46 42 22 46 35 19 59 -49
44 -120 137 -144 188 -13 29 -31 85 -39 123 -15 75 -32 265 -23 265 3 0 18
-17 34 -38 25 -35 135 -132 148 -132 3 0 27 -16 54 -35 26 -19 56 -35 65 -35
36 0 138 -68 132 -89 -3 -9 -6 -41 -7 -71 -2 -48 -1 -55 16 -52 10 2 80 48
156 103 160 114 167 116 269 65 38 -19 92 -42 121 -50 98 -29 185 -83 165
-103 -2 -2 -38 12 -80 31 -42 20 -80 36 -85 36 -5 0 -14 7 -21 15 -29 35 -89
4 -91 -46 0 -13 -3 -18 -6 -11 -2 6 -9 12 -14 12 -6 0 -7 -5 -4 -10 3 -6 -1
-13 -9 -16 -21 -8 -21 -82 -1 -108 8 -11 15 -35 15 -53 0 -29 -4 -33 -42 -45
-26 -8 -47 -22 -57 -39 -10 -17 -36 -35 -71 -50 -30 -12 -86 -43 -125 -69 -38
-26 -110 -70 -160 -98 -88 -50 -91 -51 -166 -48 -41 1 -80 5 -85 9 -11 6 -34
-8 -129 -77 -33 -25 -84 -61 -112 -81 -29 -20 -53 -40 -53 -45 0 -4 -28 -29
-62 -55 -35 -26 -114 -94 -176 -152 -62 -59 -134 -120 -160 -137 -27 -17 -75
-57 -107 -90 -32 -32 -81 -73 -108 -91 l-48 -33 59 -52 c225 -198 550 -357
857 -419 418 -85 875 -21 1234 171 120 64 265 157 258 165 -7 7 -74 -23 -82
-37 -3 -6 -17 -10 -31 -10 -14 0 -27 -7 -30 -15 -4 -8 -12 -15 -20 -15 -8 0
-14 -6 -14 -12 0 -9 -4 -8 -10 2 -9 13 -10 13 -10 0 0 -12 -2 -12 -9 -2 -6 10
-10 8 -14 -8 -3 -13 -10 -19 -17 -15 -8 5 -10 53 -6 169 6 148 8 162 27 178
24 20 47 23 69 7 12 -9 12 -10 -3 -5 -10 3 -28 -1 -40 -10 -15 -11 -16 -15 -5
-11 12 4 15 2 11 -9 -3 -10 2 -14 18 -14 20 0 17 -4 -18 -26 -48 -28 -58 -42
-15 -20 45 23 111 38 212 46 103 9 209 2 175 -11 -19 -7 -19 -8 2 -8 59 -2
278 279 388 498 137 275 198 534 199 851 0 194 -20 350 -64 505 -30 104 -32
103 -56 -20 -10 -50 -20 -92 -23 -95 -3 -3 -6 -14 -6 -25 0 -15 -6 -20 -25
-18 -54 4 -115 13 -186 28 -40 8 -83 16 -96 16 -15 1 -11 4 12 8 23 5 5 7 -55
8 -49 1 -112 6 -139 12 -27 7 -70 14 -95 17 -54 6 -210 40 -217 47 -3 3 0 31
6 63 5 33 20 111 31 174 32 179 62 301 71 287 6 -9 8 -9 8 1 0 7 5 10 10 7 6
-4 8 -10 6 -14 -3 -4 14 -6 37 -4 53 5 207 -21 217 -37 6 -9 9 -9 14 1 4 9 8
10 11 3 3 -6 20 -8 37 -6 17 3 28 1 25 -4 -3 -5 18 -7 46 -5 44 3 50 1 39 -12
-11 -12 -7 -13 30 -6 25 4 47 4 52 -2 14 -13 66 -11 66 2 0 17 -120 196 -179
267 -28 34 -59 62 -67 62 -8 0 -13 -4 -9 -9 3 -5 0 -13 -6 -17 -8 -4 -9 2 -5
23 6 25 0 37 -34 75 -49 56 -196 176 -310 253 -75 51 -292 162 -375 193 -250
92 -576 139 -805 115z m-300 -123 c0 -5 -12 -10 -27 -10 -22 0 -25 2 -13 10
20 13 40 13 40 0z m-116 -84 c-10 -8 -21 -12 -24 -10 -5 6 21 24 34 24 6 0 1
-6 -10 -14z m-24 -31 c11 -13 10 -14 -4 -9 -9 3 -16 10 -16 15 0 13 6 11 20
-6z m1381 -82 c-12 -20 -14 -14 -5 12 4 9 9 14 11 11 3 -2 0 -13 -6 -23z
m-787 2 c11 -8 35 -15 53 -15 22 0 42 -8 58 -24 21 -22 23 -28 14 -62 -12 -40
-4 -140 12 -149 12 -8 12 -55 0 -55 -5 0 -7 -8 -4 -19 4 -15 -3 -19 -37 -25
-30 -5 -52 -18 -83 -49 -39 -39 -42 -46 -45 -104 -2 -41 2 -72 12 -91 12 -23
14 -50 10 -118 -6 -90 -14 -120 -46 -163 -18 -24 -15 -69 5 -82 17 -12 2 -32
-27 -35 -38 -4 -70 -33 -55 -50 10 -12 59 -11 79 1 6 3 15 3 21 -1 8 -5 5 -12
-9 -23 -11 -9 -22 -29 -24 -46 -3 -26 0 -30 25 -33 15 -2 27 -7 27 -11 0 -15
-43 -53 -71 -63 -39 -14 -36 -34 7 -48 19 -7 38 -18 41 -26 3 -8 11 -14 19
-14 39 0 -15 -89 -54 -90 -7 0 -15 -7 -19 -15 -11 -29 -60 -47 -100 -36 -20 6
-40 8 -44 5 -4 -2 -10 0 -14 6 -3 5 -14 10 -24 10 -19 0 -103 60 -134 95 -9
11 -33 38 -52 60 -35 40 -135 231 -135 258 0 8 -7 34 -16 58 -22 59 -19 219 7
369 10 63 23 153 28 201 9 92 40 175 99 266 54 84 83 103 155 103 34 0 82 7
107 14 61 20 189 20 214 1z m-1103 -172 c1 -17 2 -17 6 0 7 28 25 19 19 -10
-3 -16 -10 -61 -16 -100 -7 -40 -16 -73 -21 -73 -5 0 -9 6 -10 13 0 10 -2 10
-6 0 -7 -20 -31 -15 -44 8 -7 13 -8 35 -3 58 4 20 8 41 9 46 0 6 6 9 13 8 7
-2 12 4 12 12 0 8 -4 15 -10 15 -5 0 -10 7 -10 16 0 8 5 12 10 9 6 -3 10 -1
10 4 0 19 40 12 41 -6z m103 -100 c-4 -21 -9 -42 -13 -48 -6 -10 -7 -16 -9
-49 -2 -19 -9 -20 -12 -1 -1 6 -11 15 -23 22 -17 10 -18 12 -5 13 13 0 16 7
12 36 -3 27 0 40 13 50 33 25 45 17 37 -23z m1930 -22 c3 -4 -6 -6 -19 -3 -14
2 -25 6 -25 8 0 8 39 4 44 -5z m226 -71 c18 -12 2 -12 -25 0 -13 6 -15 9 -5 9
8 0 22 -4 30 -9z m178 -4 c-2 -8 2 -15 7 -15 6 -1 10 3 10 8 0 5 3 13 8 17 4
4 7 -2 7 -14 0 -29 -16 -36 -42 -18 -16 11 -18 16 -8 17 8 1 4 5 -10 9 l-25 8
28 1 c19 1 27 -3 25 -13z m-2488 -25 c0 -9 -5 -23 -10 -31 -8 -12 -10 -11 -10
8 0 12 -4 22 -10 22 -5 0 -10 6 -10 14 0 9 7 12 20 9 11 -3 20 -13 20 -22z
m2413 22 c-13 -2 -35 -2 -50 0 -16 2 -5 4 22 4 28 0 40 -2 28 -4z m-2397 -115
c-3 -24 -10 -74 -16 -113 -18 -122 -18 -123 -46 -117 -29 5 -39 18 -27 35 6 7
18 58 28 115 10 57 23 106 28 109 5 3 7 -10 4 -33 -4 -22 -8 -64 -11 -94 -4
-42 0 -32 16 43 23 100 36 130 24 55z m1324 -38 c-16 -11 -40 -13 -40 -5 0 8
44 24 50 18 2 -2 -2 -8 -10 -13z m-24 -68 c-10 -10 -29 15 -21 28 6 9 10 8 17
-4 6 -10 7 -20 4 -24z m620 -69 c-5 -34 -4 -44 3 -33 8 12 11 6 11 -22 0 -20
-3 -43 -6 -51 -7 -20 -43 -10 -39 11 20 106 28 142 33 142 2 0 1 -21 -2 -47z
m-2012 -8 c-7 -16 -24 -21 -24 -6 0 8 7 13 27 20 1 1 0 -6 -3 -14z m1992 -158
c-1 -53 -26 -62 -26 -10 0 24 4 32 12 27 8 -5 9 -2 5 9 -3 10 -3 17 2 17 4 0
7 -19 7 -43z m-1420 -50 c13 4 37 -118 25 -130 -11 -11 -48 8 -59 31 -5 9 -6
42 -4 72 3 43 6 51 16 39 6 -9 16 -14 22 -12z m1419 -7 c3 -6 -4 -10 -17 -10
-18 0 -20 2 -8 10 19 12 18 12 25 0z m-78 -6 c-3 -3 -12 -4 -19 -1 -8 3 -5 6
6 6 11 1 17 -2 13 -5z m78 -24 c3 -5 -1 -10 -10 -10 -9 0 -13 -4 -10 -10 8
-13 -25 -13 -45 0 -12 8 -10 10 10 11 17 1 12 4 -15 9 l-40 7 52 2 c28 0 55
-3 58 -9z m-1402 -307 c-7 -2 -21 -2 -30 0 -10 3 -4 5 12 5 17 0 24 -2 18 -5z
m7 -48 c-12 -14 -17 -121 -11 -235 l4 -65 8 90 c16 198 22 217 71 234 23 8 30
7 39 -10 6 -13 7 -25 1 -32 -19 -25 -42 -126 -52 -237 -6 -63 -13 -128 -15
-145 -3 -16 -1 -39 4 -50 5 -11 17 -46 26 -78 9 -31 20 -55 23 -53 4 2 8 -10
9 -27 0 -18 -1 -25 -4 -17 -3 8 -19 34 -35 59 -18 29 -28 58 -28 84 0 49 -20
39 -21 -11 -2 -54 -23 67 -45 254 -13 115 -15 161 -7 193 7 24 7 41 2 41 -5 0
-36 -27 -67 -60 -59 -61 -93 -80 -72 -39 6 11 19 23 28 26 9 4 32 22 51 41 43
43 95 75 99 62 2 -6 -1 -17 -8 -25z m-233 -88 c13 -26 27 -47 33 -47 15 0 12
-73 -3 -95 -15 -19 -37 -13 -37 10 0 18 -61 104 -74 104 -5 1 -18 9 -28 18
-18 16 -18 18 19 40 21 13 45 22 53 20 8 -1 25 -24 37 -50z m-150 -23 c-3 -3
-12 -4 -19 -1 -8 3 -5 6 6 6 11 1 17 -2 13 -5z m1468 -264 c3 -5 -3 -10 -14
-10 -12 0 -21 5 -21 10 0 6 6 10 14 10 8 0 18 -4 21 -10z m75 -65 c0 -9 -6
-12 -15 -9 -8 4 -15 10 -15 15 0 5 7 9 15 9 8 0 15 -7 15 -15z m-110 -15 c0
-5 -2 -10 -4 -10 -3 0 -8 5 -11 10 -3 6 -1 10 4 10 6 0 11 -4 11 -10z m-1533
-57 c-3 -10 -5 -4 -5 12 0 17 2 24 5 18 2 -7 2 -21 0 -30z m510 -60 c-3 -10
-5 -4 -5 12 0 17 2 24 5 18 2 -7 2 -21 0 -30z m-532 -43 c37 -47 76 -128 55
-115 -6 4 -10 12 -10 18 0 7 -18 35 -41 62 -45 55 -64 85 -52 85 5 0 26 -23
48 -50z m632 -72 c-3 -8 -6 -5 -6 6 -1 11 2 17 5 13 3 -3 4 -12 1 -19z m876
-30 c32 -15 52 -60 48 -105 -2 -21 -32 -15 -38 7 -3 11 -9 20 -14 20 -5 0 -4
-12 1 -26 11 -29 14 -91 3 -81 -3 4 -15 -5 -25 -20 l-18 -28 6 52 c5 38 3 57
-9 74 -19 26 -22 20 -32 -53 -7 -53 -12 -58 -77 -82 -27 -10 -48 -22 -48 -27
0 -5 -10 -9 -22 -9 -17 0 -19 3 -9 9 9 6 10 11 2 15 -6 4 -11 23 -11 43 0 35
0 36 -20 18 -11 -10 -20 -24 -20 -32 0 -7 -7 -13 -16 -13 -8 0 -13 -4 -10 -9
4 -5 2 -21 -3 -34 -11 -28 5 -42 30 -26 8 5 25 8 39 8 24 -1 24 -1 -5 -15 -16
-7 -41 -11 -53 -8 -13 3 -21 1 -18 -4 7 -11 -19 -22 -118 -52 -38 -11 -87 -34
-109 -50 -23 -17 -44 -30 -48 -30 -8 0 -41 101 -45 137 -3 27 20 53 46 53 10
0 26 3 35 7 14 5 16 2 11 -15 -6 -17 -4 -21 8 -16 9 3 16 1 16 -5 0 -6 5 -11
10 -11 6 0 10 9 10 21 0 26 21 21 34 -8 10 -21 10 -21 45 5 20 15 55 46 77 70
23 23 46 42 52 42 6 0 16 9 22 20 6 11 14 20 18 20 5 0 40 31 78 69 54 53 79
70 105 74 19 2 36 5 40 5 3 1 17 -4 32 -10z m497 -15 c0 -16 -17 -95 -42 -190
-6 -24 -15 -43 -19 -43 -22 0 5 202 31 233 18 22 30 22 30 0z m51 -98 c-42
-97 -71 -187 -121 -380 -16 -60 -36 -135 -44 -165 -9 -30 -16 -65 -16 -76 0
-12 -7 -27 -15 -34 -8 -7 -15 -21 -15 -31 0 -10 -5 -30 -12 -46 -6 -15 -11
-31 -10 -35 1 -5 -2 -8 -7 -8 -5 0 -11 -9 -13 -20 -3 -18 -5 -18 -35 -4 -27
14 -30 19 -20 34 6 10 20 22 32 25 20 6 20 6 0 15 -11 5 -14 9 -7 9 6 1 13 15
13 34 l2 32 6 -35 7 -35 8 33 c4 18 5 56 1 85 -7 46 -6 50 8 39 13 -11 18 -6
35 40 11 29 23 69 27 88 12 55 62 206 79 237 16 30 66 155 66 167 0 16 65 147
68 137 2 -5 -15 -53 -37 -106z m55 18 c-19 -38 -41 -86 -50 -107 -9 -22 -19
-37 -22 -34 -5 6 70 172 89 196 20 26 15 10 -17 -55z m79 27 c-9 -16 -18 -30
-21 -30 -2 0 2 14 11 30 9 17 18 30 21 30 2 0 -2 -13 -11 -30z m155 10 c0 -5
-4 -10 -10 -10 -5 0 -10 5 -10 10 0 6 5 10 10 10 6 0 10 -4 10 -10z m-37 -34
c-9 -16 -90 -109 -145 -168 -20 -21 -46 -50 -58 -65 -11 -14 -20 -22 -20 -18
0 18 75 110 182 223 41 43 55 53 41 28z m-164 -48 c-30 -44 -29 -43 -29 -31 0
11 38 63 46 63 3 0 -5 -15 -17 -32z m41 -18 c-31 -39 -49 -53 -34 -27 18 31
57 78 61 73 3 -3 -9 -23 -27 -46z m159 -15 c-12 -19 -25 -35 -30 -35 -5 0 -9
-8 -9 -18 0 -10 -20 -38 -45 -62 -25 -24 -45 -52 -45 -61 0 -10 -5 -21 -10
-24 -6 -4 -23 -25 -37 -48 -14 -23 -29 -44 -32 -47 -20 -17 -102 -132 -97
-137 3 -3 12 0 21 7 9 7 18 11 21 8 3 -3 -13 -23 -35 -43 -22 -21 -42 -48 -44
-59 -3 -16 -5 -15 -6 7 0 15 4 27 10 27 5 0 7 4 4 10 -3 5 -1 19 5 30 6 10 15
42 20 69 10 53 68 186 78 177 3 -3 11 3 19 14 16 22 37 27 30 8 -2 -7 -10 -12
-16 -11 -6 2 -11 -4 -11 -12 0 -8 4 -15 8 -15 12 0 73 63 72 75 -1 10 17 37
24 36 11 -3 37 27 26 31 -10 3 79 106 92 107 4 1 -2 -15 -13 -34z m101 7 c0
-4 -10 -13 -22 -21 -23 -14 -23 -14 -4 8 20 22 26 25 26 13z m-319 -55 c-10
-9 -11 -8 -5 6 3 10 9 15 12 12 3 -3 0 -11 -7 -18z m-57 -100 c-35 -63 -41
-60 -8 4 14 28 27 49 30 47 2 -3 -7 -26 -22 -51z m-737 27 c-3 -3 -12 -4 -19
-1 -8 3 -5 6 6 6 11 1 17 -2 13 -5z m713 -130 c-10 -21 -19 -35 -20 -31 0 13
32 78 36 74 2 -2 -5 -21 -16 -43z m269 -41 c-18 -23 -42 -42 -53 -43 -11 0 46
57 58 59 5 0 2 -7 -5 -16z m-718 -30 c-5 -10 -40 -80 -77 -156 -64 -131 -94
-178 -94 -146 1 31 22 105 34 119 8 8 17 30 21 48 3 17 10 32 13 32 4 0 22 25
41 55 19 30 42 56 50 58 9 3 17 5 19 6 1 0 -2 -7 -7 -16z m619 -41 c-85 -33
-90 -37 -96 -68 -5 -29 -28 -60 -65 -87 -10 -7 -20 -23 -24 -36 -7 -23 -7 -23
36 6 24 16 57 35 73 43 16 8 40 32 53 52 13 21 31 38 41 37 10 0 12 -3 5 -6
-7 -2 -13 -9 -13 -15 0 -19 -54 -79 -84 -94 -17 -8 -49 -27 -71 -43 -22 -16
-43 -27 -47 -25 -4 2 -11 -4 -17 -13 -10 -17 -10 -17 -11 0 0 32 30 91 60 118
30 27 54 74 45 89 -3 5 5 12 17 16 13 3 29 12 37 18 20 16 74 33 86 27 5 -3
-6 -11 -25 -19z m-420 -172 c0 -5 -5 -10 -11 -10 -5 0 -7 5 -4 10 3 6 8 10 11
10 2 0 4 -4 4 -10z m370 -54 c-128 -67 -156 -84 -166 -104 -12 -24 -24 -19
-24 9 0 25 64 76 112 90 24 6 54 15 68 19 49 16 54 9 10 -14z m-401 -38 c-8
-14 -14 -18 -17 -10 -4 13 17 46 25 38 3 -2 -1 -15 -8 -28z m-54 -78 c3 -5 2
-10 -4 -10 -5 0 -13 5 -16 10 -3 6 -2 10 4 10 5 0 13 -4 16 -10z"/>
<path d="M1754 3271 c-29 -10 -60 -23 -69 -29 -16 -8 -15 -10 11 -15 16 -3 55
-9 87 -12 31 -4 57 -11 57 -17 0 -7 4 -7 13 -1 6 5 30 10 52 12 47 3 58 11 49
35 -16 41 -123 56 -200 27z"/>
<path d="M1610 3215 c-16 -19 -1 -19 24 0 16 12 17 15 4 15 -8 0 -21 -7 -28
-15z"/>
<path d="M1795 3170 c-3 -5 -1 -10 6 -10 22 0 -4 -17 -46 -30 -41 -13 -75 -36
-75 -52 0 -5 12 -1 26 9 26 16 27 16 44 -5 10 -12 28 -22 39 -22 12 0 21 -4
21 -8 0 -13 48 -8 62 6 6 6 18 12 25 12 17 0 16 18 -3 55 -22 43 -83 71 -99
45z"/>
<path d="M1935 2780 c-3 -5 2 -10 12 -10 10 0 29 -3 43 -7 22 -6 24 -5 11 10
-15 19 -56 23 -66 7z"/>
<path d="M1835 2596 c4 -14 3 -17 -3 -8 -7 10 -12 9 -23 -4 -11 -13 -11 -18
-1 -21 6 -3 12 -15 12 -27 0 -34 11 -39 35 -16 17 16 41 23 94 27 50 4 71 10
71 19 0 8 -6 14 -12 14 -9 0 -8 3 2 10 31 19 0 19 -64 -1 -48 -15 -71 -18 -78
-11 -8 8 -8 15 0 24 8 10 5 13 -14 14 -21 2 -24 -2 -19 -20z"/>
<path d="M1002 3460 c0 -14 2 -19 5 -12 2 6 2 18 0 25 -3 6 -5 1 -5 -13z"/>
<path d="M951 3404 c0 -11 3 -14 6 -6 3 7 2 16 -1 19 -3 4 -6 -2 -5 -13z"/>
<path d="M992 3400 c0 -14 2 -19 5 -12 2 6 2 18 0 25 -3 6 -5 1 -5 -13z"/>
<path d="M2305 1495 c-27 -12 -28 -14 -11 -21 20 -8 47 5 54 24 5 15 -5 14
-43 -3z"/>
<path d="M2370 1489 c0 -5 5 -7 10 -4 6 3 10 8 10 11 0 2 -4 4 -10 4 -5 0 -10
-5 -10 -11z"/>
<path d="M2125 1410 c-4 -6 -10 -8 -14 -6 -4 3 -17 -3 -28 -14 -12 -10 -22
-17 -24 -15 -2 1 -10 -4 -18 -12 -12 -13 -11 -14 10 -8 35 11 99 47 99 57 0
11 -18 10 -25 -2z"/>
<path d="M3071 1264 c0 -11 3 -14 6 -6 3 7 2 16 -1 19 -3 4 -6 -2 -5 -13z"/>
<path d="M3181 3057 c-5 -12 -11 -39 -15 -59 -6 -35 -5 -38 16 -39 l23 0 -22
-11 c-24 -11 -39 -62 -30 -98 3 -10 1 -20 -3 -22 -15 -5 -59 -199 -47 -203 21
-7 220 -44 272 -51 28 -3 84 -15 125 -26 41 -11 91 -21 110 -23 99 -10 140
-17 140 -26 0 -6 4 -8 9 -5 5 4 12 0 14 -6 4 -10 6 -10 6 0 1 7 6 10 12 7 6
-4 13 3 16 15 4 14 8 18 13 10 4 -7 7 7 7 31 -1 24 7 91 17 149 l19 105 -37
81 -37 80 -212 39 c-117 21 -234 42 -262 46 -27 5 -67 13 -88 18 -34 8 -39 7
-46 -12z"/>
<path d="M3851 2594 c0 -11 3 -14 6 -6 3 7 2 16 -1 19 -3 4 -6 -2 -5 -13z"/>
<path d="M3600 2500 c0 -5 5 -10 10 -10 6 0 10 5 10 10 0 6 -4 10 -10 10 -5 0
-10 -4 -10 -10z"/>
<path d="M3820 2460 c0 -5 5 -10 10 -10 6 0 10 5 10 10 0 6 -4 10 -10 10 -5 0
-10 -4 -10 -10z"/>
<path d="M210 1946 c0 -64 28 -220 61 -346 17 -63 33 -118 35 -122 3 -4 18 -1
34 7 41 21 45 19 14 -8 -16 -14 -24 -29 -20 -35 15 -24 33 -11 49 36 14 38 15
55 7 77 -15 40 -3 89 38 147 19 28 45 83 57 122 12 39 26 78 29 87 6 14 -10
20 -111 39 -65 12 -135 26 -155 30 l-38 7 0 -41z"/>
<path d="M490 1359 c0 -5 -4 -8 -9 -5 -5 4 -7 -4 -3 -16 4 -16 7 -18 10 -8 3
8 9 21 15 28 6 8 6 12 -2 12 -6 0 -11 -5 -11 -11z"/>
<path d="M465 1300 c-17 -7 -13 -11 28 -29 26 -11 47 -23 47 -27 0 -3 -7 -3
-16 0 -8 3 -12 2 -9 -4 3 -6 17 -10 29 -10 13 0 43 -7 66 -15 53 -19 66 -19
51 -1 -6 8 -31 19 -54 25 -24 5 -61 23 -83 39 -28 20 -45 27 -59 22z"/>
<path d="M713 1153 c-7 -15 -11 -28 -9 -30 6 -6 86 19 86 26 0 6 -49 31 -59
31 -4 0 -12 -12 -18 -27z"/>
<path d="M578 1083 c7 -3 16 -2 19 1 4 3 -2 6 -13 5 -11 0 -14 -3 -6 -6z"/>
<path d="M3350 689 c0 -5 5 -7 10 -4 6 3 10 8 10 11 0 2 -4 4 -10 4 -5 0 -10
-5 -10 -11z"/>
</g>
</svg>
